<mxfile host="app.diagrams.net" agent="Mozilla/5.0 (Windows NT 10.0; Win64; x64) AppleWebKit/537.36 (KHTML, like Gecko) Chrome/131.0.0.0 Safari/537.36" version="25.0.3">
  <diagram name="Page-1" id="u0PM9w7A6Dz-Oce5Rw_m">
    <mxGraphModel dx="3003" dy="1283" grid="0" gridSize="10" guides="1" tooltips="1" connect="1" arrows="1" fold="1" page="0" pageScale="1" pageWidth="850" pageHeight="1100" math="0" shadow="0">
      <root>
        <mxCell id="0" />
        <mxCell id="1" parent="0" />
        <mxCell id="J3f0hq7lO6TamfCHv9_o-20" style="edgeStyle=orthogonalEdgeStyle;rounded=0;orthogonalLoop=1;jettySize=auto;html=1;exitX=1;exitY=0.5;exitDx=0;exitDy=0;entryX=0;entryY=0.5;entryDx=0;entryDy=0;" edge="1" parent="1" source="S2l8c1vhwo3_BBDCEoYn-3" target="J3f0hq7lO6TamfCHv9_o-18">
          <mxGeometry relative="1" as="geometry">
            <Array as="points">
              <mxPoint x="-373" y="-74" />
              <mxPoint x="-373" y="182" />
            </Array>
          </mxGeometry>
        </mxCell>
        <mxCell id="S2l8c1vhwo3_BBDCEoYn-3" value="&lt;font style=&quot;font-size: 14px;&quot;&gt;ZUJ&lt;/font&gt;&lt;div&gt;&lt;font style=&quot;font-size: 14px;&quot;&gt;&lt;br&gt;&lt;b&gt;&lt;font style=&quot;&quot;&gt;(ZULU&amp;nbsp;&lt;/font&gt;&lt;/b&gt;&lt;/font&gt;&lt;/div&gt;&lt;div&gt;&lt;b&gt;&lt;font style=&quot;font-size: 14px;&quot;&gt;FLOWSTATION)&lt;/font&gt;&lt;/b&gt;&lt;/div&gt;" style="whiteSpace=wrap;html=1;aspect=fixed;" parent="1" vertex="1">
          <mxGeometry x="-595" y="-131" width="114" height="114" as="geometry" />
        </mxCell>
        <mxCell id="S2l8c1vhwo3_BBDCEoYn-6" value="LPRO" style="whiteSpace=wrap;html=1;aspect=fixed;" parent="1" vertex="1">
          <mxGeometry x="178" y="189" width="80" height="80" as="geometry" />
        </mxCell>
        <mxCell id="S2l8c1vhwo3_BBDCEoYn-7" value="KLA" style="whiteSpace=wrap;html=1;aspect=fixed;" parent="1" vertex="1">
          <mxGeometry x="178" y="369" width="80" height="80" as="geometry" />
        </mxCell>
        <mxCell id="S2l8c1vhwo3_BBDCEoYn-8" value="BRAVO" style="whiteSpace=wrap;html=1;aspect=fixed;" parent="1" vertex="1">
          <mxGeometry x="463" y="215" width="80" height="80" as="geometry" />
        </mxCell>
        <mxCell id="S2l8c1vhwo3_BBDCEoYn-9" value="UNIFORM" style="whiteSpace=wrap;html=1;aspect=fixed;" parent="1" vertex="1">
          <mxGeometry x="682" y="446" width="80" height="80" as="geometry" />
        </mxCell>
        <mxCell id="S2l8c1vhwo3_BBDCEoYn-10" value="ECHO" style="whiteSpace=wrap;html=1;aspect=fixed;" parent="1" vertex="1">
          <mxGeometry x="482" y="-358" width="80" height="80" as="geometry" />
        </mxCell>
        <mxCell id="S2l8c1vhwo3_BBDCEoYn-11" value="FOXTROT" style="whiteSpace=wrap;html=1;aspect=fixed;" parent="1" vertex="1">
          <mxGeometry x="622" y="-389" width="80" height="80" as="geometry" />
        </mxCell>
        <mxCell id="S2l8c1vhwo3_BBDCEoYn-12" value="" style="endArrow=none;dashed=1;html=1;dashPattern=1 3;strokeWidth=2;rounded=0;fontSize=12;startSize=8;endSize=8;curved=1;" parent="1" edge="1">
          <mxGeometry width="50" height="50" relative="1" as="geometry">
            <mxPoint x="369" y="827.2857666015625" as="sourcePoint" />
            <mxPoint x="373" y="-297" as="targetPoint" />
          </mxGeometry>
        </mxCell>
        <mxCell id="S2l8c1vhwo3_BBDCEoYn-14" value="" style="rounded=0;whiteSpace=wrap;html=1;" parent="1" vertex="1">
          <mxGeometry x="435" y="104" width="120" height="60" as="geometry" />
        </mxCell>
        <mxCell id="J3f0hq7lO6TamfCHv9_o-14" style="edgeStyle=orthogonalEdgeStyle;rounded=0;orthogonalLoop=1;jettySize=auto;html=1;exitX=1;exitY=0.5;exitDx=0;exitDy=0;entryX=0;entryY=0.5;entryDx=0;entryDy=0;" edge="1" parent="1" source="S2l8c1vhwo3_BBDCEoYn-15" target="S2l8c1vhwo3_BBDCEoYn-16">
          <mxGeometry relative="1" as="geometry" />
        </mxCell>
        <mxCell id="S2l8c1vhwo3_BBDCEoYn-15" value="ZUA" style="rounded=0;whiteSpace=wrap;html=1;" parent="1" vertex="1">
          <mxGeometry x="-949" y="-238" width="88" height="44" as="geometry" />
        </mxCell>
        <mxCell id="J3f0hq7lO6TamfCHv9_o-9" style="edgeStyle=orthogonalEdgeStyle;rounded=0;orthogonalLoop=1;jettySize=auto;html=1;exitX=1;exitY=0.5;exitDx=0;exitDy=0;entryX=0;entryY=0.5;entryDx=0;entryDy=0;" edge="1" parent="1" source="S2l8c1vhwo3_BBDCEoYn-16" target="S2l8c1vhwo3_BBDCEoYn-3">
          <mxGeometry relative="1" as="geometry">
            <Array as="points">
              <mxPoint x="-702" y="-216" />
              <mxPoint x="-702" y="-74" />
            </Array>
          </mxGeometry>
        </mxCell>
        <mxCell id="S2l8c1vhwo3_BBDCEoYn-16" value="ZUD" style="rounded=0;whiteSpace=wrap;html=1;" parent="1" vertex="1">
          <mxGeometry x="-811" y="-238" width="88" height="44" as="geometry" />
        </mxCell>
        <mxCell id="J3f0hq7lO6TamfCHv9_o-10" style="edgeStyle=orthogonalEdgeStyle;rounded=0;orthogonalLoop=1;jettySize=auto;html=1;exitX=1;exitY=0.5;exitDx=0;exitDy=0;entryX=0;entryY=0.5;entryDx=0;entryDy=0;" edge="1" parent="1" source="S2l8c1vhwo3_BBDCEoYn-17" target="S2l8c1vhwo3_BBDCEoYn-3">
          <mxGeometry relative="1" as="geometry">
            <Array as="points">
              <mxPoint x="-702" y="-1" />
              <mxPoint x="-702" y="-74" />
            </Array>
          </mxGeometry>
        </mxCell>
        <mxCell id="S2l8c1vhwo3_BBDCEoYn-17" value="ZUG" style="rounded=0;whiteSpace=wrap;html=1;" parent="1" vertex="1">
          <mxGeometry x="-874" y="-23" width="88" height="44" as="geometry" />
        </mxCell>
        <mxCell id="J3f0hq7lO6TamfCHv9_o-11" style="edgeStyle=orthogonalEdgeStyle;rounded=0;orthogonalLoop=1;jettySize=auto;html=1;exitX=1;exitY=0.5;exitDx=0;exitDy=0;entryX=0;entryY=0.5;entryDx=0;entryDy=0;" edge="1" parent="1" source="S2l8c1vhwo3_BBDCEoYn-22" target="J3f0hq7lO6TamfCHv9_o-18">
          <mxGeometry relative="1" as="geometry">
            <mxPoint x="-318" y="175" as="targetPoint" />
          </mxGeometry>
        </mxCell>
        <mxCell id="S2l8c1vhwo3_BBDCEoYn-22" value="PF" style="rounded=0;whiteSpace=wrap;html=1;" parent="1" vertex="1">
          <mxGeometry x="-625" y="104" width="88" height="44" as="geometry" />
        </mxCell>
        <mxCell id="J3f0hq7lO6TamfCHv9_o-12" style="edgeStyle=orthogonalEdgeStyle;rounded=0;orthogonalLoop=1;jettySize=auto;html=1;exitX=1;exitY=0.5;exitDx=0;exitDy=0;entryX=0;entryY=0.5;entryDx=0;entryDy=0;" edge="1" parent="1" source="S2l8c1vhwo3_BBDCEoYn-23" target="J3f0hq7lO6TamfCHv9_o-18">
          <mxGeometry relative="1" as="geometry">
            <mxPoint x="-318" y="175" as="targetPoint" />
          </mxGeometry>
        </mxCell>
        <mxCell id="S2l8c1vhwo3_BBDCEoYn-23" value="PB" style="rounded=0;whiteSpace=wrap;html=1;" parent="1" vertex="1">
          <mxGeometry x="-625" y="215" width="88" height="44" as="geometry" />
        </mxCell>
        <mxCell id="J3f0hq7lO6TamfCHv9_o-3" style="edgeStyle=orthogonalEdgeStyle;rounded=0;orthogonalLoop=1;jettySize=auto;html=1;exitX=1;exitY=0.5;exitDx=0;exitDy=0;entryX=0;entryY=0.5;entryDx=0;entryDy=0;" edge="1" parent="1" source="J3f0hq7lO6TamfCHv9_o-2" target="J3f0hq7lO6TamfCHv9_o-16">
          <mxGeometry relative="1" as="geometry">
            <mxPoint x="-55.999999999999545" y="303.0000000000002" as="targetPoint" />
          </mxGeometry>
        </mxCell>
        <mxCell id="J3f0hq7lO6TamfCHv9_o-2" value="MMJ" style="rounded=0;whiteSpace=wrap;html=1;" vertex="1" parent="1">
          <mxGeometry x="-225" y="360" width="88" height="44" as="geometry" />
        </mxCell>
        <mxCell id="J3f0hq7lO6TamfCHv9_o-5" style="edgeStyle=orthogonalEdgeStyle;rounded=0;orthogonalLoop=1;jettySize=auto;html=1;exitX=1;exitY=0.5;exitDx=0;exitDy=0;entryX=0;entryY=0.5;entryDx=0;entryDy=0;" edge="1" parent="1" source="J3f0hq7lO6TamfCHv9_o-4" target="J3f0hq7lO6TamfCHv9_o-2">
          <mxGeometry relative="1" as="geometry" />
        </mxCell>
        <mxCell id="J3f0hq7lO6TamfCHv9_o-4" value="MRA" style="rounded=0;whiteSpace=wrap;html=1;" vertex="1" parent="1">
          <mxGeometry x="-472" y="300" width="88" height="44" as="geometry" />
        </mxCell>
        <mxCell id="J3f0hq7lO6TamfCHv9_o-7" style="edgeStyle=orthogonalEdgeStyle;rounded=0;orthogonalLoop=1;jettySize=auto;html=1;exitX=1;exitY=0.5;exitDx=0;exitDy=0;entryX=0;entryY=0.5;entryDx=0;entryDy=0;" edge="1" parent="1" source="J3f0hq7lO6TamfCHv9_o-6" target="J3f0hq7lO6TamfCHv9_o-2">
          <mxGeometry relative="1" as="geometry" />
        </mxCell>
        <mxCell id="J3f0hq7lO6TamfCHv9_o-6" value="MBA" style="rounded=0;whiteSpace=wrap;html=1;" vertex="1" parent="1">
          <mxGeometry x="-472" y="415" width="88" height="44" as="geometry" />
        </mxCell>
        <mxCell id="J3f0hq7lO6TamfCHv9_o-17" style="edgeStyle=orthogonalEdgeStyle;rounded=0;orthogonalLoop=1;jettySize=auto;html=1;exitX=1;exitY=0.5;exitDx=0;exitDy=0;entryX=0;entryY=0.5;entryDx=0;entryDy=0;" edge="1" parent="1" source="J3f0hq7lO6TamfCHv9_o-16" target="S2l8c1vhwo3_BBDCEoYn-6">
          <mxGeometry relative="1" as="geometry" />
        </mxCell>
        <mxCell id="J3f0hq7lO6TamfCHv9_o-16" value="&lt;span style=&quot;font-size: 14px;&quot;&gt;MMF&lt;/span&gt;&lt;br&gt;&lt;div&gt;&lt;font style=&quot;font-size: 14px;&quot;&gt;&lt;br&gt;&lt;b&gt;&lt;font style=&quot;&quot;&gt;(MIKE-MIKE&amp;nbsp;&lt;/font&gt;&lt;/b&gt;&lt;/font&gt;&lt;/div&gt;&lt;div&gt;&lt;b&gt;&lt;font style=&quot;font-size: 14px;&quot;&gt;FLOWSTATION)&lt;/font&gt;&lt;/b&gt;&lt;/div&gt;" style="whiteSpace=wrap;html=1;aspect=fixed;" vertex="1" parent="1">
          <mxGeometry x="-20" y="218" width="114" height="114" as="geometry" />
        </mxCell>
        <mxCell id="J3f0hq7lO6TamfCHv9_o-21" style="edgeStyle=orthogonalEdgeStyle;rounded=0;orthogonalLoop=1;jettySize=auto;html=1;exitX=1;exitY=0.5;exitDx=0;exitDy=0;entryX=0;entryY=0.5;entryDx=0;entryDy=0;" edge="1" parent="1" source="J3f0hq7lO6TamfCHv9_o-18" target="J3f0hq7lO6TamfCHv9_o-16">
          <mxGeometry relative="1" as="geometry">
            <Array as="points">
              <mxPoint x="-128" y="182" />
              <mxPoint x="-128" y="275" />
            </Array>
          </mxGeometry>
        </mxCell>
        <mxCell id="J3f0hq7lO6TamfCHv9_o-18" value="&lt;span style=&quot;font-size: 14px;&quot;&gt;PCP&lt;/span&gt;&lt;br&gt;&lt;div&gt;&lt;font style=&quot;font-size: 14px;&quot;&gt;&lt;br&gt;&lt;b&gt;&lt;font style=&quot;&quot;&gt;(PAPA&amp;nbsp;&lt;/font&gt;&lt;/b&gt;&lt;/font&gt;&lt;/div&gt;&lt;div&gt;&lt;b&gt;&lt;font style=&quot;font-size: 14px;&quot;&gt;FLOWSTATION)&lt;/font&gt;&lt;/b&gt;&lt;/div&gt;" style="whiteSpace=wrap;html=1;aspect=fixed;" vertex="1" parent="1">
          <mxGeometry x="-313" y="125" width="114" height="114" as="geometry" />
        </mxCell>
      </root>
    </mxGraphModel>
  </diagram>
</mxfile>
